<?xml version="1.0" encoding="UTF-8" standalone="no"?>
<svg
   width="24"
   height="24"
   viewBox="0 0 24 24"
   version="1.1"
   xml:space="preserve"
   id="SVGRoot"
   sodipodi:docname="crosshairs.svg"
   inkscape:version="1.3 (0e150ed6c4, 2023-07-21)"
   inkscape:export-filename="crosshairs_export.svg"
   inkscape:export-xdpi="96"
   inkscape:export-ydpi="96"
   xmlns:inkscape="http://www.inkscape.org/namespaces/inkscape"
   xmlns:sodipodi="http://sodipodi.sourceforge.net/DTD/sodipodi-0.dtd"
   xmlns="http://www.w3.org/2000/svg"
   xmlns:svg="http://www.w3.org/2000/svg"><defs
   id="defs2" />&#10;<sodipodi:namedview
   pagecolor="#a9a9a9"
   bordercolor="#292929"
   borderopacity="1"
   inkscape:showpageshadow="2"
   inkscape:pageopacity="0.0"
   inkscape:pagecheckerboard="0"
   inkscape:deskcolor="#232323"
   id="namedview1"
   inkscape:zoom="22.627417"
   inkscape:cx="7.2257474"
   inkscape:cy="13.412932"
   inkscape:window-width="1920"
   inkscape:window-height="1027"
   inkscape:window-x="1912"
   inkscape:window-y="-8"
   inkscape:window-maximized="1"
   inkscape:current-layer="SVGRoot" />&#10;<style
   type="text/css"
   id="style1">&#10;g.prefab path {&#10;  vector-effect:non-scaling-stroke;&#10;  -inkscape-stroke:hairline;&#10;  fill: none;&#10;  fill-opacity: 1;&#10;  stroke-opacity: 1;&#10;  stroke: #00349c;&#10;}&#10;</style>&#10;&#10;<path
   id="path9"
   style="fill:none;fill-opacity:1;stroke:#000000;stroke-width:1;stroke-linecap:round;stroke-dasharray:none;stroke-opacity:1;paint-order:fill markers stroke"
   d="m 12.017564,12 v 0 m 0.25,0 c 0,0.138071 -0.111929,0.25 -0.25,0.25 -0.138071,0 -0.25,-0.111929 -0.25,-0.25 0,-0.138071 0.111929,-0.25 0.25,-0.25 0.138071,0 0.25,0.111929 0.25,0.25 z m 8.225228,0 c 0,4.690439 -3.802353,8.492791 -8.492792,8.492791 C 7.3095605,20.492791 3.507208,16.690439 3.5072079,12 3.5072079,7.3095609 7.3095604,3.5072088 12,3.5072088 16.69044,3.5072089 20.492792,7.309561 20.492792,12 Z m -8.475229,5.017952 v 4.999611 m 5.017953,-10.017562 h 4.999611 M 12.017565,6.9820473 V 1.9824367 M 2,12 h 4.999611" /></svg>
